HIERARCHY
ROOT Hip
{
	OFFSET 0 1.131 0.0052
	CHANNELS 6 Xposition Yposition Zposition Xrotation Yrotation Zrotation
	JOINT Abdomen
	{
		OFFSET 0 -0.047353 -0.05
		CHANNELS 3 Xrotation Zrotation Yrotation
		JOINT Chest
		{
			OFFSET 0 0.132153 0.007439
			CHANNELS 3 Xrotation Zrotation Yrotation
			JOINT Neck
			{
				OFFSET 0 0.3078 0.006161
				CHANNELS 3 Xrotation Zrotation Yrotation
				JOINT Head_comp
				{
					OFFSET 0 0.0884 0.013
					CHANNELS 3 Xrotation Yrotation Zrotation
					End Site
					{
						OFFSET -0 0.156 0.0624
					}
				}
			}
			JOINT Left_Collar
			{
				OFFSET 0.02282 0.250342 0.017193
				CHANNELS 2 Yrotation Zrotation
				JOINT Left_Shoulder
				{
					OFFSET 0.15421 0 0
					CHANNELS 3 Xrotation Yrotation Zrotation
					JOINT Left_Forearm
					{
						OFFSET 0.265212 0 0
						CHANNELS 2 Yrotation Xrotation
						JOINT Left_Hand
						{
							OFFSET 0.27571 0 0
							CHANNELS 2 Zrotation Yrotation
							JOINT L1ProxPhalanx
							{
								OFFSET 0.014142 0.001733 0.014142
								CHANNELS 3 Yrotation Zrotation Xrotation
								JOINT L1MidPhalanx
								{
									OFFSET 0.04 0 0
									CHANNELS 1 Zrotation
									JOINT L1DistPhalanx
									{
										OFFSET 0.035 0 0
										CHANNELS 1 Zrotation
										End Site
										{
											OFFSET 0.029 -0 -0
										}
									}
								}
							}
							JOINT L2ProxPhalanx
							{
								OFFSET 0.0821037 0.001578 0.0219996
								CHANNELS 2 Yrotation Zrotation
								JOINT L2MidPhalanx
								{
									OFFSET 0.04 0 0
									CHANNELS 1 Zrotation
									JOINT L2DistPhalanx
									{
										OFFSET 0.028 0 0
										CHANNELS 1 Zrotation
										End Site
										{
											OFFSET 0.02 -0 -0
										}
									}
								}
							}
							JOINT L3ProxPhalanx
							{
								OFFSET 0.083 0 0
								CHANNELS 2 Yrotation Zrotation
								JOINT L3MidPhalanx
								{
									OFFSET 0.053 0 0
									CHANNELS 1 Zrotation
									JOINT L3DistPhalanx
									{
										OFFSET 0.03 0 0
										CHANNELS 1 Zrotation
										End Site
										{
											OFFSET 0.023 -0 -0
										}
									}
								}
							}
							JOINT L4ProxPhalanx
							{
								OFFSET 0.077274 -0.000761 -0.0207055
								CHANNELS 2 Yrotation Zrotation
								JOINT L4MidPhalanx
								{
									OFFSET 0.05 0 0
									CHANNELS 1 Zrotation
									JOINT L4DistPhalanx
									{
										OFFSET 0.03 0 0
										CHANNELS 1 Zrotation
										End Site
										{
											OFFSET 0.023 -0 -0
										}
									}
								}
							}
							JOINT L5ProxPhalanx
							{
								OFFSET 0.0675499 -0.001644 -0.039
								CHANNELS 2 Yrotation Zrotation
								JOINT L5MidPhalanx
								{
									OFFSET 0.04 0 0
									CHANNELS 1 Zrotation
									JOINT L5DistPhalanx
									{
										OFFSET 0.021 0 0
										CHANNELS 1 Zrotation
										End Site
										{
											OFFSET 0.022 -0 -0
										}
									}
								}
							}
						}
					}
				}
			}
			JOINT Right_Collar
			{
				OFFSET -0.02282 0.250342 0.017193
				CHANNELS 2 Yrotation Zrotation
				JOINT Right_Shoulder
				{
					OFFSET -0.15421 0 0
					CHANNELS 3 Xrotation Yrotation Zrotation
					JOINT Right_Forearm
					{
						OFFSET -0.265212 0 0
						CHANNELS 2 Yrotation Xrotation
						JOINT Right_Hand
						{
							OFFSET -0.27571 3e-006 0
							CHANNELS 2 Zrotation Yrotation
							JOINT R1ProxPhalanx
							{
								OFFSET -0.014142 0.001733 0.014142
								CHANNELS 3 Yrotation Zrotation Xrotation
								JOINT R1MidPhalanx
								{
									OFFSET -0.04 0 0
									CHANNELS 1 Zrotation
									JOINT R1DistPhalanx
									{
										OFFSET -0.035 0 0
										CHANNELS 1 Zrotation
										End Site
										{
											OFFSET -0.029 -0 -0
										}
									}
								}
							}
							JOINT R2ProxPhalanx
							{
								OFFSET -0.0821037 0.001578 0.0219996
								CHANNELS 2 Yrotation Zrotation
								JOINT R2MidPhalanx
								{
									OFFSET -0.04 0 0
									CHANNELS 1 Zrotation
									JOINT R2DistPhalanx
									{
										OFFSET -0.028 0 0
										CHANNELS 1 Zrotation
										End Site
										{
											OFFSET -0.02 -0 -0
										}
									}
								}
							}
							JOINT R3ProxPhalanx
							{
								OFFSET -0.083 0 0
								CHANNELS 2 Yrotation Zrotation
								JOINT R3MidPhalanx
								{
									OFFSET -0.053 0 0
									CHANNELS 1 Zrotation
									JOINT R3DistPhalanx
									{
										OFFSET -0.03 0 0
										CHANNELS 1 Zrotation
										End Site
										{
											OFFSET -0.023 -0 -0
										}
									}
								}
							}
							JOINT R4ProxPhalanx
							{
								OFFSET -0.077274 -0.000761 -0.0207055
								CHANNELS 2 Yrotation Zrotation
								JOINT R4MidPhalanx
								{
									OFFSET -0.05 0 0
									CHANNELS 1 Zrotation
									JOINT R4DistPhalanx
									{
										OFFSET -0.03 0 0
										CHANNELS 1 Zrotation
										End Site
										{
											OFFSET -0.023 -0 -0
										}
									}
								}
							}
							JOINT R5ProxPhalanx
							{
								OFFSET -0.0675499 -0.001644 -0.039
								CHANNELS 2 Yrotation Zrotation
								JOINT R5MidPhalanx
								{
									OFFSET -0.04 0 0
									CHANNELS 1 Zrotation
									JOINT R5DistPhalanx
									{
										OFFSET -0.021 0 0
										CHANNELS 1 Zrotation
										End Site
										{
											OFFSET -0.022 -0 -0
										}
									}
								}
							}
						}
					}
				}
			}
		}
	}
	JOINT Left_Thigh
	{
		OFFSET 0.1118 -0.1612 -0.0442
		CHANNELS 3 Xrotation Zrotation Yrotation
		JOINT Left_Shin
		{
			OFFSET 0 -0.477856 0
			CHANNELS 1 Xrotation
			JOINT Left_Foot
			{
				OFFSET 0 -0.431952 0
				CHANNELS 2 Xrotation Zrotation
				JOINT Left_Toe
				{
					OFFSET 0 -0.0442 0.119
					CHANNELS 1 Xrotation
					End Site
					{
						OFFSET -0 -0 0.07
					}
				}
			}
		}
	}
	JOINT Right_Thigh
	{
		OFFSET -0.1118 -0.1612 -0.0442
		CHANNELS 3 Xrotation Zrotation Yrotation
		JOINT Right_Shin
		{
			OFFSET 0 -0.477856 0
			CHANNELS 1 Xrotation
			JOINT Right_Foot
			{
				OFFSET 0 -0.431952 0
				CHANNELS 2 Xrotation Zrotation
				JOINT Right_Toe
				{
					OFFSET 0 -0.0442 0.119
					CHANNELS 1 Xrotation
					End Site
					{
						OFFSET -0 -0 0.07
					}
				}
			}
		}
	}
}
MOTION
Frames: 14
Frame Time: 0.009975
-0.101349 -0.0601633 0.0532294 7.77831e-013 7.99439e-008 -5.10904e-006 0 -0 0 0 -0 0 0 -0 0 -0.713281 0.29124 -1.3613e-014 0.023119 -3.97877 30.6133 -11.1901 -67.3438 -82.8068 -0.00240614 0.00188961 -0.00374062 -37.9386 -28.008 73.698 -26.2405 -28.4472 -13.118 -18.2167 -29.0248 -19.6359 0 -22.4358 -32.6146 -28.1246 8.63175 -30.7051 -32.2053 -23.7634 7.83088 -26.7354 -35.1526 -30.0193 -4.27561 33.7676 0.956682 20.6734 20.2817 93.9885 -0.815975 -0.580026 1.64934 -12.7102 62.7389 153.464 19.2587 24.1998 -20.6836 37.4329 -0.251042 2.13333 -19.3455 56.4576 34.9626 78.0382 -37.4477 33.0424 76.6169 59.6496 -76.7776 7.93711 163.295 -65.4365 0.884795 -0.658191 -0.0101648 0.0240216 -0.908758 0.658275 0 0.896201 -0.658189 -0.0102959 8.58043e-007 -0.896142 0.658275 0 
-0.10134 -0.0601633 0.0532216 5.85057e-013 7.98964e-008 -5.10904e-006 0 -0 0 0 -0 0 0 -0 0 -0.713281 0.291215 -6.59457e-014 0.023119 -3.97877 30.6133 -11.1901 -67.3438 -82.8068 -0.00240614 0.00188961 -0.00374062 -37.9386 -28.008 73.698 -26.2405 -28.4472 -13.118 -18.2167 -29.0248 -19.6359 0 -22.4358 -32.6146 -28.1246 8.63175 -30.7051 -32.2053 -23.7634 7.83088 -26.7354 -35.1526 -30.0193 -4.26016 33.7077 0.843902 20.7009 20.2932 94.2063 -0.858643 -0.426547 1.5413 -13.2322 62.7651 153.984 19.3222 24.6123 -20.6303 37.3866 -0.222819 2.09445 -18.9787 56.9636 35.5121 77.8644 -37.1783 33.393 77.2396 58.8866 -76.6514 8.03506 163.329 -64.4057 0.884305 -0.658734 -0.0101676 0.0240216 -0.908268 0.658817 0 0.895711 -0.658732 -0.0102987 1.19534e-006 -0.895653 0.658817 0 
-0.101329 -0.0601633 0.0532125 -8.7959e-013 7.98563e-008 -5.10904e-006 0 -0 0 0 -0 0 0 -0 0 -0.71328 0.291193 -5.40841e-015 0.023119 -3.97877 30.6133 -11.1901 -67.3438 -82.8068 -0.00240614 0.00188961 -0.00374062 -37.9386 -28.008 73.698 -26.2405 -28.4472 -13.118 -18.2167 -29.0248 -19.6359 0 -22.4358 -32.6146 -28.1246 8.63175 -30.7051 -32.2053 -23.7634 7.83088 -26.7354 -35.1526 -30.0193 -4.24044 33.6491 0.70487 20.7186 20.3012 94.4161 -0.902749 -0.282499 1.43588 -13.6687 62.8139 154.538 19.293 25.0319 -20.5403 37.3883 -0.219891 2.09999 -18.7276 57.3232 35.9698 77.7455 -36.8997 33.7716 77.8732 58.0683 -76.6091 8.07089 163.172 -63.9934 0.883734 -0.659408 -0.0101714 0.0240216 -0.907698 0.659491 0 0.89514 -0.659405 -0.0103027 1.22553e-006 -0.895082 0.659491 0 
-0.101318 -0.0601633 0.0532024 2.78427e-013 7.97941e-008 -5.10904e-006 0 -0 0 0 -0 0 0 -0 0 -0.713279 0.291167 -9.77035e-014 0.023119 -3.97877 30.6133 -11.1901 -67.3438 -82.8068 -0.00240614 0.00188961 -0.00374062 -37.9386 -28.008 73.698 -26.2405 -28.4472 -13.118 -18.2167 -29.0248 -19.6359 0 -22.4358 -32.6146 -28.1246 8.63175 -30.7051 -32.2053 -23.7634 7.83088 -26.7354 -35.1526 -30.0193 -4.21915 33.6 0.525905 20.7247 20.3176 94.6297 -0.950792 -0.128628 1.3102 -13.9712 62.9053 154.961 19.3377 25.2773 -20.4529 37.4674 -0.230878 2.09714 -18.4703 57.6337 36.4537 77.5054 -36.7261 34.0396 78.4201 57.3662 -76.5951 8.09384 162.942 -63.5693 0.883097 -0.660112 -0.0101749 0.0240216 -0.90706 0.660195 0 0.894502 -0.66011 -0.0103063 8.36698e-007 -0.894444 0.660195 0 
-0.101311 -0.0601632 0.0531934 8.36215e-013 7.97425e-008 -5.10904e-006 0 -0 0 0 -0 0 0 -0 0 -0.713278 0.291131 -3.99838e-014 0.023119 -3.97877 30.6133 -11.1901 -67.3438 -82.8068 -0.00240614 0.00188961 -0.00374062 -37.9386 -28.008 73.698 -26.2405 -28.4472 -13.118 -18.2167 -29.0248 -19.6359 0 -22.4358 -32.6146 -28.1246 8.63175 -30.7051 -32.2053 -23.7634 7.83088 -26.7354 -35.1526 -30.0193 -4.19405 33.5493 0.432296 20.746 20.3166 94.8402 -0.993867 0.0129188 1.14581 -14.1371 62.9786 155.233 19.418 25.4962 -20.3441 37.593 -0.181892 2.10272 -18.1774 58.0036 36.9629 77.226 -36.5453 34.2313 78.8782 56.8364 -76.3831 8.20851 162.861 -62.627 0.882529 -0.660583 -0.0101756 0.0240216 -0.906492 0.660667 0 0.893934 -0.660581 -0.0103071 1.70755e-006 -0.893876 0.660667 0 
-0.101305 -0.0601631 0.0531829 6.51044e-013 7.96927e-008 -5.10904e-006 0 -0 0 0 -0 0 0 -0 0 -0.713278 0.291119 -0 0.023119 -3.97877 30.6133 -11.1901 -67.3438 -82.8068 -0.00240614 0.00188961 -0.00374062 -37.9386 -28.008 73.698 -26.2405 -28.4472 -13.118 -18.2167 -29.0248 -19.6359 0 -22.4358 -32.6146 -28.1246 8.63175 -30.7051 -32.2053 -23.7634 7.83088 -26.7354 -35.1526 -30.0193 -4.16045 33.5086 0.334279 20.757 20.3078 95.0351 -1.03662 0.126786 0.964295 -14.1353 63.0236 155.326 19.429 25.7922 -20.2054 37.8214 -0.121512 2.14934 -17.9664 58.2354 37.3269 77.1105 -36.284 34.4215 79.321 56.3459 -76.1429 8.29807 162.879 -62.1547 0.881867 -0.660921 -0.0101732 0.0240216 -0.90583 0.661005 0 0.893272 -0.660919 -0.0103048 1.70755e-006 -0.893215 0.661005 0 
-0.1013 -0.060163 0.0531728 3.64489e-014 7.96237e-008 -5.10904e-006 0 -0 0 0 -0 0 0 -0 0 -0.713276 0.291106 -4.25292e-014 0.023119 -3.97877 30.6133 -11.1901 -67.3438 -82.8068 -0.00240614 0.00188961 -0.00374062 -37.9386 -28.008 73.698 -26.2405 -28.4472 -13.118 -18.2167 -29.0248 -19.6359 0 -22.4358 -32.6146 -28.1246 8.63175 -30.7051 -32.2053 -23.7634 7.83088 -26.7354 -35.1526 -30.0193 -4.12715 33.4761 0.234129 20.7608 20.3023 95.2146 -1.07825 0.231933 0.808486 -14.0796 63.0521 155.136 19.4442 26.0333 -20.0965 38.1195 -0.0779224 2.24785 -17.7698 58.3889 37.6879 76.9856 -36.1133 34.5074 79.7033 55.9601 -75.946 8.38199 162.762 -61.6994 0.881229 -0.661234 -0.0101707 0.0240216 -0.905192 0.661317 0 0.892634 -0.661231 -0.0103023 1.70755e-006 -0.892577 0.661317 0 
-0.101295 -0.060163 0.0531661 -3.57861e-014 7.95647e-008 -5.10904e-006 0 -0 0 0 -0 0 0 -0 0 -0.713276 0.291081 -1.02259e-014 0.023119 -3.97877 30.6133 -11.1901 -67.3438 -82.8068 -0.00240614 0.00188961 -0.00374062 -37.9386 -28.008 73.698 -26.2405 -28.4472 -13.118 -18.2167 -29.0248 -19.6359 0 -22.4358 -32.6146 -28.1246 8.63175 -30.7051 -32.2053 -23.7634 7.83088 -26.7354 -35.1526 -30.0193 -4.10919 33.4357 0.167414 20.7836 20.3006 95.3687 -1.11296 0.354762 0.70061 -13.9734 63.0774 154.831 19.4825 26.2392 -20.0445 38.3966 0.0387663 2.3109 -17.5849 58.4626 38.0869 76.6831 -36.0132 34.5504 80.0723 55.5764 -75.8398 8.42313 162.601 -61.6725 0.880807 -0.66159 -0.0101713 0.0240216 -0.90477 0.661673 0 0.892213 -0.661588 -0.010303 1.25571e-006 -0.892155 0.661673 0 
-0.101292 -0.0601629 0.0531612 3.45274e-014 7.95373e-008 -5.10904e-006 0 -0 0 0 -0 0 0 -0 0 -0.713275 0.291067 -1.20534e-014 0.023119 -3.97877 30.6133 -11.1901 -67.3438 -82.8068 -0.00240614 0.00188961 -0.00374062 -37.9386 -28.008 73.698 -26.2405 -28.4472 -13.118 -18.2167 -29.0248 -19.6359 0 -22.4358 -32.6146 -28.1246 8.63175 -30.7051 -32.2053 -23.7634 7.83088 -26.7354 -35.1526 -30.0193 -4.09765 33.3985 0.128838 20.8139 20.2991 95.5085 -1.14223 0.534313 0.586447 -13.8256 63.0756 154.616 19.4935 26.5392 -20.0261 38.6358 0.152983 2.32485 -17.5673 58.3639 38.4369 76.6015 -35.9583 34.509 80.4463 55.1983 -75.7308 8.3879 162.728 -61.9427 0.880499 -0.661756 -0.0101703 0.0240216 -0.904462 0.661839 0 0.891904 -0.661754 -0.010302 8.15354e-007 -0.891846 0.661839 0 
-0.101292 -0.0601628 0.053157 -1.08111e-013 7.95138e-008 -5.10904e-006 0 -0 0 0 -0 0 0 -0 0 -0.713274 0.291065 6.03894e-015 0.023119 -3.97877 30.6133 -11.1901 -67.3438 -82.8068 -0.00240614 0.00188961 -0.00374062 -37.9386 -28.008 73.698 -26.2405 -28.4472 -13.118 -18.2167 -29.0248 -19.6359 0 -22.4358 -32.6146 -28.1246 8.63175 -30.7051 -32.2053 -23.7634 7.83088 -26.7354 -35.1526 -30.0193 -4.0814 33.3687 0.132464 20.8393 20.2803 95.6364 -1.16735 0.690775 0.486928 -13.6873 63.0669 154.307 19.5229 26.832 -20.0324 38.9034 0.226848 2.41187 -17.5992 58.2748 38.7244 76.6528 -35.9161 34.4407 80.7944 54.8567 -75.6842 8.33217 162.804 -62.113 0.880236 -0.661739 -0.010167 0.0240216 -0.904199 0.661822 0 0.891642 -0.661737 -0.0102987 1.70755e-006 -0.891584 0.661822 0 
-0.101293 -0.0601628 0.0531537 3.1047e-014 7.94952e-008 -5.10905e-006 0 -0 0 0 -0 0 0 -0 0 -0.713274 0.291069 4.55968e-015 0.023119 -3.97877 30.6133 -11.1901 -67.3438 -82.8068 -0.00240614 0.00188961 -0.00374062 -37.9386 -28.008 73.698 -26.2405 -28.4472 -13.118 -18.2167 -29.0248 -19.6359 0 -22.4358 -32.6146 -28.1246 8.63175 -30.7051 -32.2053 -23.7634 7.83088 -26.7354 -35.1526 -30.0193 -4.06478 33.347 0.140306 20.8579 20.2554 95.7501 -1.19112 0.785507 0.40159 -13.6032 63.0591 154.032 19.5494 27.0809 -20.0161 39.2395 0.322395 2.49446 -17.5901 58.1678 38.9915 76.546 -35.866 34.4165 81.1514 54.5088 -75.6029 8.33812 162.927 -62.1687 0.880027 -0.661686 -0.0101637 0.0240216 -0.90399 0.66177 0 0.891433 -0.661684 -0.0102955 2.41484e-006 -0.891375 0.66177 0 
-0.101295 -0.0601627 0.0531509 8.59511e-013 7.94877e-008 -5.10905e-006 0 -0 0 0 -0 0 0 -0 0 -0.713274 0.291074 2.95502e-015 0.023119 -3.97877 30.6133 -11.1901 -67.3438 -82.8068 -0.00240614 0.00188961 -0.00374062 -37.9386 -28.008 73.698 -26.2405 -28.4472 -13.118 -18.2167 -29.0248 -19.6359 0 -22.4358 -32.6146 -28.1246 8.63175 -30.7051 -32.2053 -23.7634 7.83088 -26.7354 -35.1526 -30.0193 -4.05075 33.3335 0.143174 20.8725 20.2393 95.8468 -1.21251 0.845169 0.330681 -13.4354 63.0099 153.651 19.4791 27.236 -19.9958 39.5962 0.43485 2.55417 -17.5843 58.1096 39.3227 76.4829 -35.8598 34.3939 81.5611 54.0975 -75.5382 8.36354 163.213 -61.8598 0.879854 -0.661569 -0.0101599 0.0240216 -0.903817 0.661652 0 0.891259 -0.661567 -0.0102916 2.23587e-006 -0.891202 0.661652 0 
-0.101299 -0.0601626 0.0531482 6.40747e-013 7.94707e-008 -5.10905e-006 0 -0 0 0 -0 0 0 -0 0 -0.713273 0.29108 1.24114e-014 0.023119 -3.97877 30.6133 -11.1901 -67.3438 -82.8068 -0.00240614 0.00188961 -0.00374062 -37.9386 -28.008 73.698 -26.2405 -28.4472 -13.118 -18.2167 -29.0248 -19.6359 0 -22.4358 -32.6146 -28.1246 8.63175 -30.7051 -32.2053 -23.7634 7.83088 -26.7354 -35.1526 -30.0193 -4.03353 33.3231 0.161054 20.881 20.2319 95.9218 -1.22771 0.901409 0.273964 -13.2061 62.9846 153.149 19.4134 27.5366 -20.0049 39.906 0.535291 2.63639 -17.4382 58.2157 39.7155 76.2817 -35.9345 34.4193 82.0919 53.4478 -75.4721 8.40565 163.287 -61.2093 0.879682 -0.661348 -0.0101546 0.0240216 -0.903645 0.661431 0 0.891087 -0.661346 -0.0102862 2.30613e-006 -0.89103 0.661431 0 
-0.101304 -0.0601626 0.0531472 -2.25905e-013 7.94572e-008 -5.10905e-006 0 -0 0 0 -0 0 0 -0 0 -0.713273 0.291092 2.14822e-015 0.023119 -3.97877 30.6133 -11.1901 -67.3438 -82.8068 -0.00240614 0.00188961 -0.00374062 -37.9386 -28.008 73.698 -26.2405 -28.4472 -13.118 -18.2167 -29.0248 -19.6359 0 -22.4358 -32.6146 -28.1246 8.63175 -30.7051 -32.2053 -23.7634 7.83088 -26.7354 -35.1526 -30.0193 -4.01867 33.3179 0.204439 20.8858 20.2257 95.9658 -1.23636 0.908652 0.23401 -12.9854 63.0465 152.727 19.4544 28.0062 -20.0232 40.1779 0.620768 2.75824 -17.5723 57.9832 39.8532 76.2995 -35.932 34.4867 82.6348 52.8206 -75.34 8.48725 163.041 -60.374 0.879622 -0.661025 -0.0101489 0.0240216 -0.903585 0.661108 0 0.891027 -0.661023 -0.0102805 1.70755e-006 -0.89097 0.661108 0 
